<svg xmlns="http://www.w3.org/2000/svg" viewBox="0 0 64 64">
  <rect width="64" height="64" rx="18" fill="#f97316"/>
  <path d="M19 24h26l-2.2 24H21.2L19 24Z" fill="#fff"/>
  <path d="M25 24v-3.5a7 7 0 0 1 14 0V24" fill="none" stroke="#fff" stroke-width="4" stroke-linecap="round"/>
  <path d="M26 30h8v3h-4.5v2.5h4v3h-4V43H26V30Zm10 0h3.5v4.7h4V30H47v13h-3.5v-5h-4v5H36V30Z" fill="#f97316"/>
  <g transform="translate(43 43)">
    <rect width="17" height="12" rx="3" fill="#fff" stroke="#fff" stroke-width="2"/>
    <path d="M0 3a3 3 0 0 1 3-3h2.7v12H3a3 3 0 0 1-3-3V3Zm11.3-3H14a3 3 0 0 1 3 3v6a3 3 0 0 1-3 3h-2.7V0Z" fill="#008751"/>
  </g>
</svg>
